<!--?xml version="1.0" encoding="utf-8"?-->
<!-- Generator: Adobe Illustrator 22.1.0, SVG Export Plug-In . SVG Version: 6.00 Build 0)  -->
<svg version="1.1" id="_x33_" xmlns="http://www.w3.org/2000/svg" xmlns:xlink="http://www.w3.org/1999/xlink" x="0px" y="0px" viewBox="0 0 800 455.739" style="width: 50px;" xml:space="preserve">
<style type="text/css">
	.st0{fill:#040000;}
</style>
<g>
	<path class="st0" d="M294.737,52.619l21.657,50.86l29.517-72.204l11.3,56.511l43.324-65.933l5.65,51.812l60.279-67.818
		l-2.825,51.803l70.639-55.575L523.921,49.17l71.582-48.031l-12.252,55.567l70.639-39.56L634.12,74.6l73.46-13.186l-29.193,37.673
		l68.753,2.83c0,0-42.389,31.088-38.617,32.023c3.765,0.935,63.104,13.186,63.104,13.186l-37.682,20.714L798,206.465l-39.56,12.235
		l36.731,25.439l-29.193,5.641l27.315,27.325l-23.552,1.869l12.252,24.504l-16.016-3.772l3.764,18.845l-11.301-2.838
		c0,0-15.693,60.903-57.138,81.006c-44.581,21.615-95.441,33.901-95.441,33.901s-7.537,22.618-25.116,23.857
		c-17.579,1.258-30.145-7.527-22.609-8.785c7.537-1.258,7.537-15.073,7.537-15.073c-59.025,12.557-228.56-12.558-228.56-12.558
		s-11.297,23.859-40.18,26.373c-28.888,2.515-30.141-17.571-17.584-20.103c12.554-2.515,15.068-20.086,15.068-20.086
		c-35.163-1.24-47.716-26.372-90.414-20.086c-42.7,6.27-160.741-21.343-160.741-21.343s-25.124,7.527-37.673-15.072
		c-12.562-22.618,11.296-37.674,18.827-27.631c5.031,2.515,25.121-6.288,50.241-33.918c25.111-27.63,25.111-75.347,41.433-85.39
		c0,0-21.659-41.429-17.895-40.495c3.768,0.935,41.446,14.12,41.446,14.12l-8.479-53.68l36.73,34.853l5.655-54.632l34.542,42.074
		l8.47-65.932l23.544,54.624l14.13-68.762l22.604,48.039L294.737,52.619z"></path>
</g>
</svg>
